<svg width="24" height="25" viewBox="0 0 24 25" fill="none" xmlns="http://www.w3.org/2000/svg">
<path d="M15.7505 11V6.5C15.7505 4.42893 14.0716 2.75 12.0005 2.75C9.92942 2.75 8.25048 4.42893 8.25048 6.5V11M19.6065 9.00723L20.8697 21.0072C20.9396 21.6715 20.4188 22.25 19.7508 22.25H4.25012C3.58221 22.25 3.06138 21.6715 3.1313 21.0072L4.39446 9.00723C4.45473 8.43466 4.93755 8 5.51328 8H18.4877C19.0634 8 19.5462 8.43466 19.6065 9.00723ZM8.62548 11C8.62548 11.2071 8.45759 11.375 8.25048 11.375C8.04338 11.375 7.87548 11.2071 7.87548 11C7.87548 10.7929 8.04338 10.625 8.25048 10.625C8.45759 10.625 8.62548 10.7929 8.62548 11ZM16.1255 11C16.1255 11.2071 15.9576 11.375 15.7505 11.375C15.5434 11.375 15.3755 11.2071 15.3755 11C15.3755 10.7929 15.5434 10.625 15.7505 10.625C15.9576 10.625 16.1255 10.7929 16.1255 11Z" stroke="#0F172A" stroke-width="1.5" stroke-linecap="round" stroke-linejoin="round"/>
</svg>
