<svg width="45" height="45" viewBox="0 0 45 45" fill="none" xmlns="http://www.w3.org/2000/svg">
<path d="M33.0509 44.2493H11.4494C5.33309 44.2493 0.375 39.2916 0.375 33.1753V11.5738C0.375 5.45706 5.33309 0.49939 11.4494 0.49939H33.0509C39.1672 0.49939 44.1249 5.45706 44.1249 11.5738V33.1753C44.1249 39.2916 39.1672 44.2493 33.0509 44.2493Z" fill="#737373"/>
<path d="M26.0154 23.2845L20.0663 26.2288C19.8335 26.3536 19.0401 26.1864 19.0401 25.9206V19.8788C19.0401 19.6108 19.8398 19.4402 20.0727 19.5752L25.7678 22.6719C26.0082 22.8095 26.258 23.1549 26.0154 23.2849V23.2845ZM33.8192 19.7335C33.8192 16.868 31.4963 14.5452 28.6308 14.5452H15.3622C12.4971 14.5452 10.1738 16.868 10.1738 19.7335V25.9096C10.1738 28.776 12.4971 31.0997 15.3622 31.0997H28.6308C31.4963 31.0997 33.8192 28.776 33.8192 25.9096V19.7335V19.7335Z" fill="#FEFEFE"/>
</svg>
