<svg width="45" height="45" viewBox="0 0 45 45" fill="none" xmlns="http://www.w3.org/2000/svg">
<path d="M20.6659 17.6147V22.3823H15.1719V28.6366H20.6659V44.2869H27.4278V28.6366H32.4689L33.4282 22.3823H27.4278V18.3242C27.4278 16.6127 28.266 14.9452 30.9529 14.9452H33.6809V9.62006C33.6809 9.62006 31.2057 9.19714 28.8379 9.19714C23.8968 9.19714 20.6655 12.1927 20.6655 17.6151L20.6659 17.6147Z" fill="#FEFEFE"/>
<path d="M33.3009 44.2111H11.6994C5.58309 44.2111 0.625 39.2535 0.625 33.1384V11.5357C0.625 5.41934 5.58309 0.46167 11.6994 0.46167H33.3009C39.4172 0.46167 44.3749 5.41934 44.3749 11.5357V33.1384C44.3749 39.2535 39.4172 44.2111 33.3009 44.2111V44.2111Z" fill="#737373"/>
<path d="M29.2083 14.2357C28.3866 14.2357 27.7236 14.9016 27.7236 15.7216C27.7236 16.5416 28.387 17.2063 29.2083 17.2063C30.0278 17.2063 30.6929 16.5416 30.6929 15.7216C30.6929 14.9016 30.0278 14.2357 29.2083 14.2357Z" fill="#FEFEFE"/>
<path d="M22.6036 26.3773C20.3993 26.3773 18.6065 24.5845 18.6065 22.3802C18.6065 20.1759 20.3993 18.3844 22.6036 18.3844C24.808 18.3844 26.6008 20.1759 26.6008 22.3802C26.6008 24.5845 24.808 26.3773 22.6036 26.3773ZM22.6036 16.1407C19.1636 16.1407 16.3633 18.9402 16.3633 22.3802C16.3633 25.8206 19.1636 28.6206 22.6036 28.6206C26.0441 28.6206 28.8427 25.8211 28.8427 22.3802C28.8427 18.9402 26.0441 16.1407 22.6036 16.1407V16.1407Z" fill="#FEFEFE"/>
<path d="M17.4422 12.0957C14.5601 12.0957 12.2148 14.4406 12.2148 17.323V27.4378C12.2148 30.3203 14.5601 32.6651 17.4422 32.6651H27.5582C30.4407 32.6651 32.7838 30.3203 32.7838 27.4378V17.323C32.7838 14.4406 30.4402 12.0957 27.5582 12.0957H17.4422V12.0957ZM27.5582 35.0485H17.4422C13.2461 35.0485 9.83105 31.6347 9.83105 27.4378V17.323C9.83105 13.1274 13.2461 9.71234 17.4422 9.71234H27.5582C31.7543 9.71234 35.168 13.1274 35.168 17.323V27.4378C35.168 31.6351 31.7543 35.0485 27.5582 35.0485Z" fill="#FEFEFE"/>
</svg>
