<svg width="45" height="45" viewBox="0 0 45 45" fill="none" xmlns="http://www.w3.org/2000/svg">
<path d="M33.4259 44.2493H11.8244C5.70809 44.2493 0.75 39.2925 0.75 33.1761V11.5725C0.75 5.45706 5.70809 0.49939 11.8244 0.49939H33.4259C39.5422 0.49939 44.4999 5.45748 44.4999 11.5725V33.1761C44.4999 39.2925 39.5422 44.2493 33.4259 44.2493Z" fill="#737373"/>
<path d="M34.1154 19.8119C33.8957 19.8327 33.6747 19.8432 33.4554 19.8445C31.0352 19.8445 28.7801 18.6253 27.4542 16.6018V27.6444C27.4542 32.1525 23.8017 35.8063 19.294 35.8063C14.7859 35.8063 11.1309 32.153 11.1309 27.6444C11.1309 23.1368 14.7859 19.483 19.294 19.483C19.4625 19.483 19.6297 19.4974 19.7974 19.5084V23.5296C19.6297 23.5106 19.465 23.4788 19.294 23.4788C16.9923 23.4788 15.1271 25.3457 15.1271 27.6457C15.1271 29.9457 16.9928 31.8113 19.294 31.8113C21.5936 31.8113 23.6256 29.9969 23.6256 27.6965L23.6658 8.94238H27.5135C27.8763 12.3934 30.6588 15.0879 34.1188 15.3402V19.8119H34.1149H34.1154Z" fill="#FEFEFE"/>
</svg>
