<svg width="45" height="45" viewBox="0 0 45 45" fill="none" xmlns="http://www.w3.org/2000/svg">
<path d="M33.5653 44.2785H26.1388L22.7508 43.1583L19.39 44.2785H11.9355C5.81112 44.2785 0.84668 39.314 0.84668 33.1897V11.5585C0.84668 5.43417 5.81112 0.469727 11.9355 0.469727H33.5653C39.6897 0.469727 44.6541 5.43417 44.6541 11.5585V33.1897C44.6541 39.314 39.6897 44.2785 33.5653 44.2785Z" fill="#737373"/>
<path d="M19.37 17.6067V22.3743H13.876V28.6287H19.37V44.2789H26.1319V28.6287H31.173L32.1323 22.3743H26.1319V18.3162C26.1319 16.6047 26.9701 14.9372 29.657 14.9372H32.385V9.61206C32.385 9.61206 29.9098 9.18915 27.5421 9.18915C22.6009 9.18915 19.3696 12.1847 19.3696 17.6071L19.37 17.6067Z" fill="#FEFEFE"/>
</svg>
