<svg width="45" height="45" viewBox="0 0 45 45" fill="none" xmlns="http://www.w3.org/2000/svg">
<path d="M33.0509 44.2499H11.4494C5.33309 44.2499 0.375 39.2918 0.375 33.175V11.5714C0.375 5.45596 5.33309 0.498718 11.4494 0.498718H33.0509C39.1672 0.498718 44.1249 5.45639 44.1249 11.5714V33.175C44.1249 39.2918 39.1672 44.2499 33.0509 44.2499Z" fill="#737373"/>
<path d="M17.669 30.646L18.0936 30.8996C19.6549 31.8314 21.4316 32.3241 23.2308 32.3241C28.782 32.3241 33.2968 27.8076 33.2968 22.2577C33.2968 16.7065 28.782 12.1921 23.2308 12.1921C17.6809 12.1921 13.1668 16.7069 13.1668 22.2577C13.1668 24.0911 13.6757 25.8945 14.6375 27.477L14.8996 27.905L13.8941 31.6582L17.669 30.6465V30.646ZM10.5752 34.9742L12.3765 28.2525C11.3562 26.4119 10.8203 24.3511 10.8203 22.2573C10.8203 15.4132 16.3884 9.84552 23.2316 9.84552C30.0761 9.84552 35.6455 15.4132 35.6455 22.2573C35.6455 29.1017 30.0761 34.669 23.2316 34.669C21.1776 34.669 19.1481 34.1508 17.3325 33.164L10.5756 34.9742H10.5752Z" fill="#FEFEFE"/>
<path fill-rule="evenodd" clip-rule="evenodd" d="M27.8494 23.9836C27.3389 23.678 26.6725 23.3376 26.071 23.584C25.61 23.7715 25.3153 24.495 25.0156 24.8633C24.8628 25.0538 24.6795 25.083 24.4433 24.9865C22.7106 24.2977 21.3826 23.1408 20.4271 21.5456C20.2645 21.2984 20.2937 21.1028 20.4889 20.8721C20.7772 20.5326 21.1404 20.1465 21.2179 19.6881C21.2966 19.23 21.082 18.6949 20.8923 18.286C20.6502 17.764 20.3793 17.0206 19.8569 16.7243C19.3764 16.4538 18.7431 16.6053 18.3159 16.9537C17.5759 17.5557 17.2191 18.4968 17.2318 19.4319C17.2343 19.6978 17.2669 19.962 17.3287 20.2181C17.4782 20.8344 17.7631 21.4098 18.0831 21.9567C18.3261 22.3703 18.5864 22.7695 18.8718 23.1539C19.7976 24.4133 20.952 25.5085 22.2868 26.3272C22.954 26.7349 23.6732 27.093 24.417 27.339C25.2514 27.6158 25.9952 27.902 26.8965 27.7306C27.8405 27.5511 28.771 26.9677 29.1444 26.0588C29.2562 25.7891 29.312 25.489 29.249 25.2049C29.1215 24.6165 28.3257 24.2673 27.8503 23.9832L27.8494 23.9836Z" fill="#FEFEFE"/>
</svg>
