<svg width="44" height="45" viewBox="0 0 44 45" fill="none" xmlns="http://www.w3.org/2000/svg">
<path d="M32.6759 44.249H11.0744C4.95809 44.249 0 39.2914 0 33.175V11.5727C0 5.45724 4.95809 0.499573 11.0744 0.499573H32.6759C38.7922 0.499573 43.7499 5.45724 43.7499 11.5727V33.175C43.7499 39.2914 38.7922 44.249 32.6759 44.249Z" fill="#737373"/>
<path d="M33.8152 15.1198C33.0655 15.4581 32.2383 15.663 31.4314 15.7988C31.8133 15.7345 32.3763 15.0407 32.6036 14.7608C32.9478 14.3311 33.2331 13.8447 33.3944 13.3181C33.4152 13.2758 33.4296 13.2246 33.3881 13.1937C33.3373 13.1729 33.303 13.1835 33.2632 13.2042C32.3607 13.6873 31.4289 14.0378 30.4353 14.2854C30.354 14.3062 30.2922 14.2854 30.2414 14.2334C30.1589 14.1411 30.0814 14.0539 29.9938 13.9811C29.5768 13.6267 29.1302 13.3482 28.6256 13.1428C27.9635 12.8723 27.2404 12.7585 26.5271 12.8046C25.8333 12.8495 25.1504 13.0459 24.534 13.3676C23.9164 13.6902 23.3661 14.1394 22.9279 14.6804C22.4745 15.2409 22.1392 15.9009 21.9686 16.6019C21.8023 17.2788 21.8171 17.9473 21.9174 18.6314C21.9331 18.7457 21.9225 18.7601 21.8205 18.7457C17.9385 18.167 14.7216 16.7789 12.1096 13.802C11.9957 13.6733 11.9365 13.6733 11.8416 13.8117C10.6991 15.5245 11.2532 18.277 12.682 19.6296C12.8716 19.8104 13.0668 19.9916 13.278 20.155C13.2001 20.1706 12.2506 20.0678 11.4048 19.6296C11.2905 19.5581 11.2337 19.5995 11.224 19.7278C11.2143 19.9137 11.2287 20.0834 11.2545 20.2845C11.475 22.0206 12.6773 23.6267 14.3236 24.2537C14.5188 24.3362 14.7343 24.4078 14.9455 24.4433C14.5709 24.5259 14.1839 24.5852 13.1078 24.5005C12.9745 24.4747 12.9233 24.5428 12.9745 24.6702C13.7835 26.8745 15.528 27.5307 16.8357 27.9041C17.0106 27.9346 17.1862 27.9346 17.3606 27.9761C17.3496 27.9917 17.3399 27.9917 17.3306 28.0065C16.8963 28.6674 15.3934 29.1601 14.6932 29.404C13.4194 29.8502 12.0343 30.0504 10.6881 29.917C10.473 29.8853 10.4269 29.8878 10.3689 29.917C10.3109 29.9535 10.3625 30.0043 10.4307 30.0601C10.705 30.2409 10.9814 30.4013 11.2655 30.5554C12.1206 31.0092 13.0109 31.3695 13.9426 31.6265C18.7538 32.9549 24.1725 31.9783 27.7848 28.3901C30.6212 25.5719 31.616 21.684 31.616 17.7928C31.616 17.6412 31.7968 17.5561 31.9026 17.4761C32.6409 16.922 33.2357 16.2582 33.7864 15.5169C33.9117 15.3505 33.9117 15.2024 33.9117 15.1406C33.9117 15.1308 33.9117 15.1215 33.9117 15.1215C33.9117 15.0597 33.9117 15.0779 33.8156 15.1215L33.8152 15.1198Z" fill="#FEFEFE"/>
</svg>
