<svg width="24" height="26" viewBox="0 0 24 26" fill="none" xmlns="http://www.w3.org/2000/svg">
<path d="M16.6476 11.1538V5.61538C16.6476 3.06638 14.5668 1 12 1C9.43318 1 7.35237 3.06638 7.35237 5.61538V11.1538M21.4267 8.70121L22.9922 23.4704C23.0788 24.288 22.4334 25 21.6056 25H2.39444C1.56665 25 0.921153 24.288 1.00781 23.4704L2.57333 8.70121C2.64803 7.99651 3.24642 7.46154 3.95996 7.46154H20.04C20.7536 7.46154 21.352 7.99651 21.4267 8.70121ZM7.81713 11.1538C7.81713 11.4087 7.60905 11.6154 7.35237 11.6154C7.09568 11.6154 6.8876 11.4087 6.8876 11.1538C6.8876 10.8989 7.09568 10.6923 7.35237 10.6923C7.60905 10.6923 7.81713 10.8989 7.81713 11.1538ZM17.1124 11.1538C17.1124 11.4087 16.9043 11.6154 16.6476 11.6154C16.391 11.6154 16.1829 11.4087 16.1829 11.1538C16.1829 10.8989 16.391 10.6923 16.6476 10.6923C16.9043 10.6923 17.1124 10.8989 17.1124 11.1538Z" stroke="white" stroke-linecap="round" stroke-linejoin="round"/>
</svg>
