<svg width="19" height="17" viewBox="0 0 19 17" fill="none" xmlns="http://www.w3.org/2000/svg">
<path d="M7.75 2.5L17.5 2.5M7.75 2.5C7.75 3.32843 7.07843 4 6.25 4C5.42157 4 4.75 3.32843 4.75 2.5M7.75 2.5C7.75 1.67157 7.07843 1 6.25 1C5.42157 1 4.75 1.67157 4.75 2.5M1 2.5H4.75M7.75 14.5H17.5M7.75 14.5C7.75 15.3284 7.07843 16 6.25 16C5.42157 16 4.75 15.3284 4.75 14.5M7.75 14.5C7.75 13.6716 7.07843 13 6.25 13C5.42157 13 4.75 13.6716 4.75 14.5M1 14.5L4.75 14.5M13.75 8.5L17.5 8.5M13.75 8.5C13.75 9.32843 13.0784 10 12.25 10C11.4216 10 10.75 9.32843 10.75 8.5M13.75 8.5C13.75 7.67157 13.0784 7 12.25 7C11.4216 7 10.75 7.67157 10.75 8.5M1 8.5H10.75" stroke="#0F172A" stroke-width="1.5" stroke-linecap="round" stroke-linejoin="round"/>
</svg>
