<svg width="70" height="70" viewBox="0 0 70 70" fill="none" xmlns="http://www.w3.org/2000/svg">
<path d="M33.4851 10.2046C34.0456 8.85714 35.9544 8.85714 36.5148 10.2046L42.7156 25.113C42.9518 25.681 43.486 26.0692 44.0993 26.1183L60.1942 27.4086C61.6488 27.5253 62.2387 29.3406 61.1304 30.29L48.8678 40.7942C48.4005 41.1945 48.1965 41.8225 48.3392 42.4209L52.0857 58.1268C52.4243 59.5463 50.88 60.6682 49.6346 59.9075L35.8552 51.4911C35.3301 51.1704 34.6698 51.1704 34.1448 51.4911L20.3653 59.9075C19.1199 60.6682 17.5757 59.5463 17.9143 58.1268L21.6607 42.4209C21.8035 41.8225 21.5994 41.1945 21.1322 40.7942L8.86957 30.29C7.76127 29.3406 8.35112 27.5253 9.80578 27.4086L25.9007 26.1183C26.5139 26.0692 27.0481 25.681 27.2844 25.113L33.4851 10.2046Z" stroke="black" stroke-width="1.5" stroke-linecap="round" stroke-linejoin="round"/>
</svg>
