<svg width="45" height="45" viewBox="0 0 45 45" fill="none" xmlns="http://www.w3.org/2000/svg">
<path d="M20.6659 17.6148V22.3824H15.1719V28.6368H20.6659V44.287H27.4278V28.6368H32.4689L33.4282 22.3824H27.4278V18.3244C27.4278 16.6128 28.266 14.9453 30.9529 14.9453H33.6809V9.62018C33.6809 9.62018 31.2057 9.19727 28.8379 9.19727C23.8968 9.19727 20.6655 12.1928 20.6655 17.6153L20.6659 17.6148Z" fill="#FEFEFE"/>
<path d="M33.3009 44.2111H11.6994C5.58309 44.2111 0.625 39.2535 0.625 33.1384V11.5357C0.625 5.41934 5.58309 0.46167 11.6994 0.46167H33.3009C39.4172 0.46167 44.3749 5.41934 44.3749 11.5357V33.1384C44.3749 39.2535 39.4172 44.2111 33.3009 44.2111V44.2111Z" fill="#737373"/>
<path d="M29.2083 14.2356C28.3866 14.2356 27.7236 14.9015 27.7236 15.7215C27.7236 16.5415 28.387 17.2061 29.2083 17.2061C30.0278 17.2061 30.6929 16.5415 30.6929 15.7215C30.6929 14.9015 30.0278 14.2356 29.2083 14.2356Z" fill="#FEFEFE"/>
<path d="M22.6036 26.3773C20.3993 26.3773 18.6065 24.5844 18.6065 22.3801C18.6065 20.1758 20.3993 18.3843 22.6036 18.3843C24.808 18.3843 26.6008 20.1758 26.6008 22.3801C26.6008 24.5844 24.808 26.3773 22.6036 26.3773ZM22.6036 16.1406C19.1636 16.1406 16.3633 18.9401 16.3633 22.3801C16.3633 25.8206 19.1636 28.6205 22.6036 28.6205C26.0441 28.6205 28.8427 25.821 28.8427 22.3801C28.8427 18.9401 26.0441 16.1406 22.6036 16.1406V16.1406Z" fill="#FEFEFE"/>
<path d="M17.4422 12.0958C14.5601 12.0958 12.2148 14.4406 12.2148 17.3231V27.4378C12.2148 30.3203 14.5601 32.6652 17.4422 32.6652H27.5582C30.4407 32.6652 32.7838 30.3203 32.7838 27.4378V17.3231C32.7838 14.4406 30.4402 12.0958 27.5582 12.0958H17.4422V12.0958ZM27.5582 35.0485H17.4422C13.2461 35.0485 9.83105 31.6348 9.83105 27.4378V17.3231C9.83105 13.1274 13.2461 9.7124 17.4422 9.7124H27.5582C31.7543 9.7124 35.168 13.1274 35.168 17.3231V27.4378C35.168 31.6352 31.7543 35.0485 27.5582 35.0485Z" fill="#FEFEFE"/>
</svg>
