<svg width="45" height="45" viewBox="0 0 45 45" fill="none" xmlns="http://www.w3.org/2000/svg">
<path d="M33.4259 44.2492H11.8244C5.70809 44.2492 0.75 39.2923 0.75 33.176V11.5724C0.75 5.45693 5.70809 0.499268 11.8244 0.499268H33.4259C39.5422 0.499268 44.4999 5.45736 44.4999 11.5724V33.176C44.4999 39.2923 39.5422 44.2492 33.4259 44.2492Z" fill="#737373"/>
<path d="M34.1154 19.8117C33.8957 19.8324 33.6747 19.843 33.4554 19.8443C31.0352 19.8443 28.7801 18.6251 27.4542 16.6015V27.6442C27.4542 32.1523 23.8017 35.8061 19.294 35.8061C14.7859 35.8061 11.1309 32.1527 11.1309 27.6442C11.1309 23.1365 14.7859 19.4827 19.294 19.4827C19.4625 19.4827 19.6297 19.4971 19.7974 19.5081V23.5294C19.6297 23.5103 19.465 23.4786 19.294 23.4786C16.9923 23.4786 15.1271 25.3455 15.1271 27.6455C15.1271 29.9454 16.9928 31.8111 19.294 31.8111C21.5936 31.8111 23.6256 29.9967 23.6256 27.6963L23.6658 8.94214H27.5135C27.8763 12.3932 30.6588 15.0877 34.1188 15.34V19.8117H34.1149H34.1154Z" fill="#FEFEFE"/>
</svg>
