<svg width="45" height="44" viewBox="0 0 45 44" fill="none" xmlns="http://www.w3.org/2000/svg">
<path d="M33.5509 43.7486H16.7907L15.0237 42.965L13.2706 43.7486H11.9494C5.83309 43.7486 0.875 38.7905 0.875 32.6755V11.0727C0.875 4.95767 5.83309 0 11.9494 0H33.5509C39.6672 0 44.6249 4.95767 44.6249 11.0727V32.6755C44.6249 38.791 39.6672 43.7486 33.5509 43.7486V43.7486Z" fill="#737373"/>
<path d="M25.0304 7.46588C19.1215 6.79659 12.6496 9.00216 9.17062 14.4611C6.0299 19.3849 6.70808 25.2027 9.08468 28.1445C9.78064 29.0094 10.6396 29.6668 11.6721 30.0817C12.1975 30.2963 12.6326 30.1071 12.7774 29.5864C12.9705 28.8874 13.1305 28.1805 13.3112 27.4769C13.4277 27.0243 13.1546 26.7513 12.7994 26.3051C10.0029 22.7965 11.4105 15.1168 17.6055 12.2525C23.0098 9.75231 31.5269 11.43 31.9862 19.1986C32.2195 23.0941 30.9931 28.5903 27.8303 30.883C24.4034 33.3697 20.3928 30.9482 21.2517 27.5421C22.2889 23.4116 23.6402 20.6189 23.1309 18.484C22.3012 15.0317 17.5594 15.353 16.239 19.536C15.629 21.4732 15.767 23.3837 16.4651 25.2679C16.5277 25.4351 16.5756 25.5918 16.5328 25.7797C13.6165 38.0433 13.3362 40.0067 13.2613 42.2682C13.2456 42.7643 13.26 43.2567 13.277 43.7482H16.7716C18.1072 41.2281 18.3121 38.7596 19.7011 33.313C19.7265 33.2169 19.7569 33.1212 19.7895 33.0094C20.0164 33.2897 20.2023 33.5653 20.4347 33.799C23.4442 36.8622 29.9686 36.532 33.992 31.5413C37.4904 27.1975 37.7647 21.0515 37.3837 18.5598C36.5493 13.0903 32.0874 8.26683 25.0296 7.46504L25.0304 7.46588Z" fill="#FEFEFE"/>
</svg>
