<svg width="21" height="20" viewBox="0 0 21 20" fill="none" xmlns="http://www.w3.org/2000/svg">
<path d="M10.1389 1.34648C10.3311 0.884506 10.9855 0.884506 11.1777 1.34648L13.3036 6.45794C13.3847 6.6527 13.5678 6.78577 13.7781 6.80262L19.2963 7.24502C19.7951 7.285 19.9973 7.90741 19.6173 8.23291L15.413 11.8344C15.2528 11.9716 15.1828 12.1869 15.2318 12.3921L16.5163 17.7769C16.6323 18.2636 16.1029 18.6483 15.6759 18.3875L10.9515 15.5019C10.7715 15.3919 10.5451 15.3919 10.3651 15.5019L5.64071 18.3875C5.21372 18.6483 4.68426 18.2636 4.80036 17.7769L6.08484 12.3921C6.13379 12.1869 6.06383 11.9716 5.90363 11.8344L1.69931 8.23292C1.31932 7.90741 1.52155 7.285 2.0203 7.24502L7.53854 6.80262C7.7488 6.78577 7.93196 6.6527 8.01296 6.45794L10.1389 1.34648Z" stroke="#EA4986" stroke-width="1.5" stroke-linecap="round" stroke-linejoin="round"/>
</svg>
