<svg width="20" height="20" viewBox="0 0 20 20" fill="none" xmlns="http://www.w3.org/2000/svg">
<path d="M9.38894 1.34648C9.58108 0.884506 10.2355 0.884506 10.4277 1.34648L12.5536 6.45794C12.6347 6.6527 12.8178 6.78577 13.0281 6.80262L18.5463 7.24502C19.0451 7.285 19.2473 7.90741 18.8673 8.23291L14.663 11.8344C14.5028 11.9716 14.4328 12.1869 14.4818 12.3921L15.7663 17.7769C15.8823 18.2636 15.3529 18.6483 14.9259 18.3875L10.2015 15.5019C10.0215 15.3919 9.79511 15.3919 9.6151 15.5019L4.89071 18.3875C4.46372 18.6483 3.93426 18.2636 4.05036 17.7769L5.33484 12.3921C5.38379 12.1869 5.31383 11.9716 5.15363 11.8344L0.949311 8.23292C0.569322 7.90741 0.771555 7.285 1.2703 7.24502L6.78854 6.80262C6.9988 6.78577 7.18196 6.6527 7.26296 6.45794L9.38894 1.34648Z" stroke="#EA4986" stroke-width="1.5" stroke-linecap="round" stroke-linejoin="round"/>
</svg>
