<svg width="21" height="20" viewBox="0 0 21 20" fill="none" xmlns="http://www.w3.org/2000/svg">
<path d="M9.76394 1.34648C9.95608 0.884506 10.6105 0.884506 10.8027 1.34648L12.9286 6.45794C13.0097 6.6527 13.1928 6.78577 13.4031 6.80262L18.9213 7.24502C19.4201 7.285 19.6223 7.90741 19.2423 8.23291L15.038 11.8344C14.8778 11.9716 14.8078 12.1869 14.8568 12.3921L16.1413 17.7769C16.2573 18.2636 15.7279 18.6483 15.3009 18.3875L10.5765 15.5019C10.3965 15.3919 10.1701 15.3919 9.9901 15.5019L5.26571 18.3875C4.83872 18.6483 4.30926 18.2636 4.42536 17.7769L5.70984 12.3921C5.75879 12.1869 5.68883 11.9716 5.52863 11.8344L1.32431 8.23292C0.944322 7.90741 1.14655 7.285 1.6453 7.24502L7.16354 6.80262C7.3738 6.78577 7.55696 6.6527 7.63796 6.45794L9.76394 1.34648Z" stroke="#EA4986" stroke-width="1.5" stroke-linecap="round" stroke-linejoin="round"/>
</svg>
