<svg width="21" height="20" viewBox="0 0 21 20" fill="none" xmlns="http://www.w3.org/2000/svg">
<path d="M9.63991 1.34648C9.83206 0.884506 10.4865 0.884506 10.6786 1.34648L12.8046 6.45794C12.8856 6.6527 13.0688 6.78577 13.279 6.80262L18.7973 7.24502C19.296 7.285 19.4983 7.90741 19.1183 8.23291L14.914 11.8344C14.7538 11.9716 14.6838 12.1869 14.7327 12.3921L16.0172 17.7769C16.1333 18.2636 15.6039 18.6483 15.1769 18.3875L10.4525 15.5019C10.2725 15.3919 10.0461 15.3919 9.86608 15.5019L5.14169 18.3875C4.71469 18.6483 4.18524 18.2636 4.30133 17.7769L5.58582 12.3921C5.63476 12.1869 5.5648 11.9716 5.40461 11.8344L1.20029 8.23292C0.820298 7.90741 1.02253 7.285 1.52127 7.24502L7.03952 6.80262C7.24978 6.78577 7.43293 6.6527 7.51394 6.45794L9.63991 1.34648Z" stroke="#EA4986" stroke-width="1.5" stroke-linecap="round" stroke-linejoin="round"/>
</svg>
