<svg width="21" height="20" viewBox="0 0 21 20" fill="none" xmlns="http://www.w3.org/2000/svg">
<path d="M9.57839 1.34648C9.77054 0.884506 10.425 0.884506 10.6171 1.34648L12.7431 6.45794C12.8241 6.6527 13.0073 6.78577 13.2175 6.80262L18.7358 7.24502C19.2345 7.285 19.4367 7.90741 19.0568 8.23291L14.8524 11.8344C14.6922 11.9716 14.6223 12.1869 14.6712 12.3921L15.9557 17.7769C16.0718 18.2636 15.5423 18.6483 15.1154 18.3875L10.391 15.5019C10.211 15.3919 9.98456 15.3919 9.80455 15.5019L5.08016 18.3875C4.65317 18.6483 4.12372 18.2636 4.23981 17.7769L5.5243 12.3921C5.57324 12.1869 5.50328 11.9716 5.34309 11.8344L1.13876 8.23292C0.758775 7.90741 0.961008 7.285 1.45975 7.24502L6.978 6.80262C7.18825 6.78577 7.37141 6.6527 7.45241 6.45794L9.57839 1.34648Z" stroke="#EA4986" stroke-width="1.5" stroke-linecap="round" stroke-linejoin="round"/>
</svg>
