<svg width="21" height="20" viewBox="0 0 21 20" fill="none" xmlns="http://www.w3.org/2000/svg">
<path d="M10.2659 1.34648C10.458 0.884506 11.1125 0.884506 11.3046 1.34648L13.4306 6.45794C13.5116 6.6527 13.6948 6.78577 13.905 6.80262L19.4233 7.24502C19.922 7.285 20.1242 7.90741 19.7443 8.23291L15.5399 11.8344C15.3797 11.9716 15.3098 12.1869 15.3587 12.3921L16.6432 17.7769C16.7593 18.2636 16.2298 18.6483 15.8029 18.3875L11.0785 15.5019C10.8985 15.3919 10.6721 15.3919 10.4921 15.5019L5.76766 18.3875C5.34067 18.6483 4.81122 18.2636 4.92731 17.7769L6.2118 12.3921C6.26074 12.1869 6.19078 11.9716 6.03059 11.8344L1.82626 8.23292C1.44627 7.90741 1.64851 7.285 2.14725 7.24502L7.6655 6.80262C7.87575 6.78577 8.05891 6.6527 8.13991 6.45794L10.2659 1.34648Z" stroke="#EA4986" stroke-width="1.5" stroke-linecap="round" stroke-linejoin="round"/>
</svg>
