<svg width="21" height="20" viewBox="0 0 21 20" fill="none" xmlns="http://www.w3.org/2000/svg">
<path d="M10.3274 1.34648C10.5196 0.884506 11.174 0.884506 11.3661 1.34648L13.4921 6.45794C13.5731 6.6527 13.7563 6.78577 13.9665 6.80262L19.4848 7.24502C19.9835 7.285 20.1858 7.90741 19.8058 8.23291L15.6015 11.8344C15.4413 11.9716 15.3713 12.1869 15.4202 12.3921L16.7047 17.7769C16.8208 18.2636 16.2914 18.6483 15.8644 18.3875L11.14 15.5019C10.96 15.3919 10.7336 15.3919 10.5536 15.5019L5.82919 18.3875C5.40219 18.6483 4.87274 18.2636 4.98883 17.7769L6.27332 12.3921C6.32226 12.1869 6.2523 11.9716 6.09211 11.8344L1.88779 8.23292C1.5078 7.90741 1.71003 7.285 2.20877 7.24502L7.72702 6.80262C7.93728 6.78577 8.12043 6.6527 8.20144 6.45794L10.3274 1.34648Z" stroke="#EA4986" stroke-width="1.5" stroke-linecap="round" stroke-linejoin="round"/>
</svg>
