<svg width="21" height="20" viewBox="0 0 21 20" fill="none" xmlns="http://www.w3.org/2000/svg">
<path d="M9.57546 1.34648C9.76761 0.884506 10.422 0.884506 10.6142 1.34648L12.7402 6.45794C12.8212 6.6527 13.0043 6.78577 13.2146 6.80262L18.7328 7.24502C19.2316 7.285 19.4338 7.90741 19.0538 8.23291L14.8495 11.8344C14.6893 11.9716 14.6193 12.1869 14.6683 12.3921L15.9528 17.7769C16.0689 18.2636 15.5394 18.6483 15.1124 18.3875L10.388 15.5019C10.208 15.3919 9.98163 15.3919 9.80162 15.5019L5.07723 18.3875C4.65024 18.6483 4.12079 18.2636 4.23688 17.7769L5.52137 12.3921C5.57031 12.1869 5.50035 11.9716 5.34016 11.8344L1.13583 8.23292C0.755845 7.90741 0.958078 7.285 1.45682 7.24502L6.97507 6.80262C7.18533 6.78577 7.36848 6.6527 7.44949 6.45794L9.57546 1.34648Z" stroke="#EA4986" stroke-width="1.5" stroke-linecap="round" stroke-linejoin="round"/>
</svg>
