<svg width="21" height="20" viewBox="0 0 21 20" fill="none" xmlns="http://www.w3.org/2000/svg">
<path d="M10.0764 1.34648C10.2686 0.884506 10.923 0.884506 11.1152 1.34648L13.2411 6.45794C13.3222 6.6527 13.5053 6.78577 13.7156 6.80262L19.2338 7.24502C19.7326 7.285 19.9348 7.90741 19.5548 8.23291L15.3505 11.8344C15.1903 11.9716 15.1203 12.1869 15.1693 12.3921L16.4538 17.7769C16.5698 18.2636 16.0404 18.6483 15.6134 18.3875L10.889 15.5019C10.709 15.3919 10.4826 15.3919 10.3026 15.5019L5.57821 18.3875C5.15122 18.6483 4.62176 18.2636 4.73786 17.7769L6.02234 12.3921C6.07129 12.1869 6.00133 11.9716 5.84113 11.8344L1.63681 8.23292C1.25682 7.90741 1.45905 7.285 1.9578 7.24502L7.47604 6.80262C7.6863 6.78577 7.86946 6.6527 7.95046 6.45794L10.0764 1.34648Z" stroke="#EA4986" stroke-width="1.5" stroke-linecap="round" stroke-linejoin="round"/>
</svg>
