<svg width="21" height="20" viewBox="0 0 21 20" fill="none" xmlns="http://www.w3.org/2000/svg">
<path d="M10.0149 1.34648C10.2071 0.884506 10.8615 0.884506 11.0536 1.34648L13.1796 6.45794C13.2606 6.6527 13.4438 6.78577 13.654 6.80262L19.1723 7.24502C19.671 7.285 19.8733 7.90741 19.4933 8.23291L15.289 11.8344C15.1288 11.9716 15.0588 12.1869 15.1077 12.3921L16.3922 17.7769C16.5083 18.2636 15.9789 18.6483 15.5519 18.3875L10.8275 15.5019C10.6475 15.3919 10.4211 15.3919 10.2411 15.5019L5.51669 18.3875C5.08969 18.6483 4.56024 18.2636 4.67633 17.7769L5.96082 12.3921C6.00976 12.1869 5.9398 11.9716 5.77961 11.8344L1.57529 8.23292C1.1953 7.90741 1.39753 7.285 1.89627 7.24502L7.41452 6.80262C7.62478 6.78577 7.80793 6.6527 7.88894 6.45794L10.0149 1.34648Z" stroke="#EA4986" stroke-width="1.5" stroke-linecap="round" stroke-linejoin="round"/>
</svg>
