<svg width="21" height="20" viewBox="0 0 21 20" fill="none" xmlns="http://www.w3.org/2000/svg">
<path d="M9.95241 1.34648C10.1446 0.884506 10.799 0.884506 10.9911 1.34648L13.1171 6.45794C13.1981 6.6527 13.3813 6.78577 13.5915 6.80262L19.1098 7.24502C19.6085 7.285 19.8108 7.90741 19.4308 8.23291L15.2265 11.8344C15.0663 11.9716 14.9963 12.1869 15.0452 12.3921L16.3297 17.7769C16.4458 18.2636 15.9164 18.6483 15.4894 18.3875L10.765 15.5019C10.585 15.3919 10.3586 15.3919 10.1786 15.5019L5.45419 18.3875C5.02719 18.6483 4.49774 18.2636 4.61383 17.7769L5.89832 12.3921C5.94726 12.1869 5.8773 11.9716 5.71711 11.8344L1.51279 8.23292C1.1328 7.90741 1.33503 7.285 1.83377 7.24502L7.35202 6.80262C7.56228 6.78577 7.74543 6.6527 7.82644 6.45794L9.95241 1.34648Z" stroke="#EA4986" stroke-width="1.5" stroke-linecap="round" stroke-linejoin="round"/>
</svg>
