<svg width="21" height="20" viewBox="0 0 21 20" fill="none" xmlns="http://www.w3.org/2000/svg">
<path d="M9.94948 1.34648C10.1416 0.884506 10.7961 0.884506 10.9882 1.34648L13.1142 6.45794C13.1952 6.6527 13.3784 6.78577 13.5886 6.80262L19.1069 7.24502C19.6056 7.285 19.8078 7.90741 19.4278 8.23291L15.2235 11.8344C15.0633 11.9716 14.9934 12.1869 15.0423 12.3921L16.3268 17.7769C16.4429 18.2636 15.9134 18.6483 15.4864 18.3875L10.7621 15.5019C10.582 15.3919 10.3557 15.3919 10.1756 15.5019L5.45126 18.3875C5.02426 18.6483 4.49481 18.2636 4.6109 17.7769L5.89539 12.3921C5.94433 12.1869 5.87437 11.9716 5.71418 11.8344L1.50986 8.23292C1.12987 7.90741 1.3321 7.285 1.83084 7.24502L7.34909 6.80262C7.55935 6.78577 7.7425 6.6527 7.82351 6.45794L9.94948 1.34648Z" stroke="#EA4986" stroke-width="1.5" stroke-linecap="round" stroke-linejoin="round"/>
</svg>
