<svg width="21" height="20" viewBox="0 0 21 20" fill="none" xmlns="http://www.w3.org/2000/svg">
<path d="M9.88796 1.34648C10.0801 0.884506 10.7345 0.884506 10.9267 1.34648L13.0527 6.45794C13.1337 6.6527 13.3168 6.78577 13.5271 6.80262L19.0453 7.24502C19.5441 7.285 19.7463 7.90741 19.3663 8.23291L15.162 11.8344C15.0018 11.9716 14.9318 12.1869 14.9808 12.3921L16.2653 17.7769C16.3814 18.2636 15.8519 18.6483 15.4249 18.3875L10.7005 15.5019C10.5205 15.3919 10.2941 15.3919 10.1141 15.5019L5.38973 18.3875C4.96274 18.6483 4.43329 18.2636 4.54938 17.7769L5.83387 12.3921C5.88281 12.1869 5.81285 11.9716 5.65266 11.8344L1.44833 8.23292C1.06835 7.90741 1.27058 7.285 1.76932 7.24502L7.28757 6.80262C7.49783 6.78577 7.68098 6.6527 7.76199 6.45794L9.88796 1.34648Z" stroke="#EA4986" stroke-width="1.5" stroke-linecap="round" stroke-linejoin="round"/>
</svg>
