<svg width="21" height="20" viewBox="0 0 21 20" fill="none" xmlns="http://www.w3.org/2000/svg">
<path d="M10.2005 1.34648C10.3926 0.884506 11.047 0.884506 11.2392 1.34648L13.3652 6.45794C13.4462 6.6527 13.6293 6.78577 13.8396 6.80262L19.3578 7.24502C19.8566 7.285 20.0588 7.90741 19.6788 8.23291L15.4745 11.8344C15.3143 11.9716 15.2443 12.1869 15.2933 12.3921L16.5778 17.7769C16.6939 18.2636 16.1644 18.6483 15.7374 18.3875L11.013 15.5019C10.833 15.3919 10.6066 15.3919 10.4266 15.5019L5.70223 18.3875C5.27524 18.6483 4.74579 18.2636 4.86188 17.7769L6.14637 12.3921C6.19531 12.1869 6.12535 11.9716 5.96516 11.8344L1.76083 8.23292C1.38085 7.90741 1.58308 7.285 2.08182 7.24502L7.60007 6.80262C7.81033 6.78577 7.99348 6.6527 8.07449 6.45794L10.2005 1.34648Z" stroke="#EA4986" stroke-width="1.5" stroke-linecap="round" stroke-linejoin="round"/>
</svg>
