<svg width="21" height="20" viewBox="0 0 21 20" fill="none" xmlns="http://www.w3.org/2000/svg">
<path d="M9.82546 1.34648C10.0176 0.884506 10.672 0.884506 10.8642 1.34648L12.9902 6.45794C13.0712 6.6527 13.2543 6.78577 13.4646 6.80262L18.9828 7.24502C19.4816 7.285 19.6838 7.90741 19.3038 8.23291L15.0995 11.8344C14.9393 11.9716 14.8693 12.1869 14.9183 12.3921L16.2028 17.7769C16.3189 18.2636 15.7894 18.6483 15.3624 18.3875L10.638 15.5019C10.458 15.3919 10.2316 15.3919 10.0516 15.5019L5.32723 18.3875C4.90024 18.6483 4.37079 18.2636 4.48688 17.7769L5.77137 12.3921C5.82031 12.1869 5.75035 11.9716 5.59016 11.8344L1.38583 8.23292C1.00585 7.90741 1.20808 7.285 1.70682 7.24502L7.22507 6.80262C7.43533 6.78577 7.61848 6.6527 7.69949 6.45794L9.82546 1.34648Z" stroke="#EA4986" stroke-width="1.5" stroke-linecap="round" stroke-linejoin="round"/>
</svg>
