<svg width="21" height="20" viewBox="0 0 21 20" fill="none" xmlns="http://www.w3.org/2000/svg">
<path d="M9.70241 1.34648C9.89456 0.884506 10.549 0.884506 10.7411 1.34648L12.8671 6.45794C12.9481 6.6527 13.1313 6.78577 13.3415 6.80262L18.8598 7.24502C19.3585 7.285 19.5608 7.90741 19.1808 8.23291L14.9765 11.8344C14.8163 11.9716 14.7463 12.1869 14.7952 12.3921L16.0797 17.7769C16.1958 18.2636 15.6664 18.6483 15.2394 18.3875L10.515 15.5019C10.335 15.3919 10.1086 15.3919 9.92858 15.5019L5.20419 18.3875C4.77719 18.6483 4.24774 18.2636 4.36383 17.7769L5.64832 12.3921C5.69726 12.1869 5.6273 11.9716 5.46711 11.8344L1.26279 8.23292C0.882798 7.90741 1.08503 7.285 1.58377 7.24502L7.10202 6.80262C7.31228 6.78577 7.49543 6.6527 7.57644 6.45794L9.70241 1.34648Z" stroke="#EA4986" stroke-width="1.5" stroke-linecap="round" stroke-linejoin="round"/>
</svg>
