<svg width="21" height="20" viewBox="0 0 21 20" fill="none" xmlns="http://www.w3.org/2000/svg">
<path d="M10.262 1.34648C10.4541 0.884506 11.1086 0.884506 11.3007 1.34648L13.4267 6.45794C13.5077 6.6527 13.6909 6.78577 13.9011 6.80262L19.4194 7.24502C19.9181 7.285 20.1203 7.90741 19.7403 8.23291L15.536 11.8344C15.3758 11.9716 15.3059 12.1869 15.3548 12.3921L16.6393 17.7769C16.7554 18.2636 16.2259 18.6483 15.7989 18.3875L11.0746 15.5019C10.8945 15.3919 10.6682 15.3919 10.4881 15.5019L5.76376 18.3875C5.33676 18.6483 4.80731 18.2636 4.9234 17.7769L6.20789 12.3921C6.25683 12.1869 6.18687 11.9716 6.02668 11.8344L1.82236 8.23292C1.44237 7.90741 1.6446 7.285 2.14334 7.24502L7.66159 6.80262C7.87185 6.78577 8.055 6.6527 8.13601 6.45794L10.262 1.34648Z" stroke="#EA4986" stroke-width="1.5" stroke-linecap="round" stroke-linejoin="round"/>
</svg>
