<svg width="20" height="20" viewBox="0 0 20 20" fill="none" xmlns="http://www.w3.org/2000/svg">
<path d="M9.51296 1.34648C9.70511 0.884506 10.3595 0.884506 10.5517 1.34648L12.6777 6.45794C12.7587 6.6527 12.9418 6.78577 13.1521 6.80262L18.6703 7.24502C19.1691 7.285 19.3713 7.90741 18.9913 8.23291L14.787 11.8344C14.6268 11.9716 14.5568 12.1869 14.6058 12.3921L15.8903 17.7769C16.0064 18.2636 15.4769 18.6483 15.0499 18.3875L10.3255 15.5019C10.1455 15.3919 9.91913 15.3919 9.73912 15.5019L5.01473 18.3875C4.58774 18.6483 4.05829 18.2636 4.17438 17.7769L5.45887 12.3921C5.50781 12.1869 5.43785 11.9716 5.27766 11.8344L1.07333 8.23292C0.693345 7.90741 0.895578 7.285 1.39432 7.24502L6.91257 6.80262C7.12283 6.78577 7.30598 6.6527 7.38699 6.45794L9.51296 1.34648Z" stroke="#EA4986" stroke-width="1.5" stroke-linecap="round" stroke-linejoin="round"/>
</svg>
