<svg width="20" height="20" viewBox="0 0 20 20" fill="none" xmlns="http://www.w3.org/2000/svg">
<path d="M9.45144 1.34648C9.64358 0.884506 10.298 0.884506 10.4902 1.34648L12.6161 6.45794C12.6972 6.6527 12.8803 6.78577 13.0906 6.80262L18.6088 7.24502C19.1076 7.285 19.3098 7.90741 18.9298 8.23291L14.7255 11.8344C14.5653 11.9716 14.4953 12.1869 14.5443 12.3921L15.8288 17.7769C15.9448 18.2636 15.4154 18.6483 14.9884 18.3875L10.264 15.5019C10.084 15.3919 9.85761 15.3919 9.6776 15.5019L4.95321 18.3875C4.52622 18.6483 3.99676 18.2636 4.11286 17.7769L5.39734 12.3921C5.44629 12.1869 5.37633 11.9716 5.21613 11.8344L1.01181 8.23292C0.631822 7.90741 0.834055 7.285 1.3328 7.24502L6.85104 6.80262C7.0613 6.78577 7.24446 6.6527 7.32546 6.45794L9.45144 1.34648Z" stroke="#EA4986" stroke-width="1.5" stroke-linecap="round" stroke-linejoin="round"/>
</svg>
