<svg width="15" height="17" viewBox="0 0 15 17" fill="none" xmlns="http://www.w3.org/2000/svg">
<path fill-rule="evenodd" clip-rule="evenodd" d="M8.78033 0.21967C9.07322 0.512563 9.07322 0.987437 8.78033 1.28033L1.81066 8.25L8.78033 15.2197C9.07322 15.5126 9.07322 15.9874 8.78033 16.2803C8.48744 16.5732 8.01256 16.5732 7.71967 16.2803L0.21967 8.78033C-0.0732233 8.48744 -0.0732233 8.01256 0.21967 7.71967L7.71967 0.21967C8.01256 -0.0732233 8.48744 -0.0732233 8.78033 0.21967ZM14.7803 0.21967C15.0732 0.512563 15.0732 0.987437 14.7803 1.28033L7.81066 8.25L14.7803 15.2197C15.0732 15.5126 15.0732 15.9874 14.7803 16.2803C14.4874 16.5732 14.0126 16.5732 13.7197 16.2803L6.21967 8.78033C5.92678 8.48744 5.92678 8.01256 6.21967 7.71967L13.7197 0.21967C14.0126 -0.0732233 14.4874 -0.0732233 14.7803 0.21967Z" fill="white"/>
</svg>
