<svg width="15" height="17" viewBox="0 0 15 17" fill="none" xmlns="http://www.w3.org/2000/svg">
<path fill-rule="evenodd" clip-rule="evenodd" d="M6.21967 16.2803C5.92678 15.9874 5.92678 15.5126 6.21967 15.2197L13.1893 8.25L6.21967 1.28033C5.92678 0.987434 5.92678 0.512562 6.21967 0.219667C6.51256 -0.0732256 6.98744 -0.0732256 7.28033 0.219667L14.7803 7.71967C15.0732 8.01256 15.0732 8.48744 14.7803 8.78033L7.28033 16.2803C6.98744 16.5732 6.51256 16.5732 6.21967 16.2803ZM0.219668 16.2803C-0.0732254 15.9874 -0.0732254 15.5126 0.219668 15.2197L7.18934 8.25L0.219668 1.28033C-0.0732254 0.987434 -0.0732254 0.512562 0.219668 0.219667C0.512562 -0.0732256 0.987435 -0.0732256 1.28033 0.219667L8.78033 7.71967C9.07322 8.01256 9.07322 8.48744 8.78033 8.78033L1.28033 16.2803C0.987435 16.5732 0.512562 16.5732 0.219668 16.2803Z" fill="white"/>
</svg>
