<svg width="15" height="17" viewBox="0 0 15 17" fill="none" xmlns="http://www.w3.org/2000/svg">
<path fill-rule="evenodd" clip-rule="evenodd" d="M6.21967 16.2803C5.92678 15.9874 5.92678 15.5126 6.21967 15.2197L13.1893 8.25L6.21967 1.28033C5.92678 0.98744 5.92678 0.512568 6.21967 0.219673C6.51257 -0.0732196 6.98744 -0.0732196 7.28033 0.219673L14.7803 7.71967C15.0732 8.01257 15.0732 8.48744 14.7803 8.78033L7.28033 16.2803C6.98744 16.5732 6.51257 16.5732 6.21967 16.2803ZM0.219673 16.2803C-0.07322 15.9874 -0.07322 15.5126 0.219673 15.2197L7.18934 8.25L0.219673 1.28033C-0.07322 0.98744 -0.07322 0.512568 0.219673 0.219673C0.512567 -0.0732196 0.98744 -0.0732196 1.28033 0.219673L8.78033 7.71967C9.07322 8.01257 9.07322 8.48744 8.78033 8.78033L1.28033 16.2803C0.98744 16.5732 0.512567 16.5732 0.219673 16.2803Z" fill="white"/>
</svg>
